<svg xmlns="http://www.w3.org/2000/svg" viewBox="0 0 100 100">
  <defs>
    <clipPath id="ob-profile">
      <ellipse cx="48" cy="52" rx="22" ry="33" transform="rotate(-12 48 52)"/>
    </clipPath>
  </defs>
  <path d="M41 20 C40 13 45 9 44 5"
        fill="none" stroke="#2A1A06" stroke-width="3.5" stroke-linecap="round" stroke-linejoin="round"/>
  <ellipse cx="48" cy="52" rx="22" ry="33" transform="rotate(-12 48 52)" fill="#2C4E18"/>
  <ellipse cx="56" cy="42" rx="21" ry="31" transform="rotate(-5 56 42)" fill="#4E7E2C" clip-path="url(#ob-profile)"/>
  <ellipse cx="62" cy="35" rx="13" ry="21" transform="rotate(-5 62 35)" fill="#72B040" clip-path="url(#ob-profile)"/>
  <ellipse cx="65" cy="28" rx="8" ry="12" transform="rotate(-5 65 28)" fill="#96D458" clip-path="url(#ob-profile)"/>
  <ellipse cx="48" cy="52" rx="22" ry="33" transform="rotate(-12 48 52)"
           fill="none" stroke="#1A2E0A" stroke-width="3.5"/>
  <circle cx="49" cy="53" r="10" fill="#1A2E0A"/>
  <circle cx="49" cy="53" r="8" fill="#C41E1E"/>
  <ellipse cx="47" cy="51" rx="3.5" ry="2.8" fill="#E04040"/>
</svg>
